<svg width="1041" height="120" viewBox="0 0 1041 120" fill="none" xmlns="http://www.w3.org/2000/svg">
<path d="M17.568 50.416H26.496V10.096H41.976V2.17601H2.08801V10.096H17.568V50.416ZM15.912 11.68H0.432007V0.59201H43.632V11.68H28.152V52H15.912V11.68Z" fill="white"/>
<path d="M48.9819 0.59201H61.2219V19.456H80.3019V0.59201H92.5419V52H80.3019V30.544H61.2219V52H48.9819V0.59201ZM50.6379 50.416H59.5659V28.96H81.9579V50.416H90.8859V2.17601H81.9579V21.04H59.5659V2.17601H50.6379V50.416Z" fill="white"/>
<path d="M103.645 50.416H141.517V42.496H112.573V28.96H137.773V21.904H112.573V9.66401H140.797V2.17601H103.645V50.416ZM101.989 0.59201H142.453V11.248H114.229V20.32H139.429V30.544H114.229V40.912H143.173V52H101.989V0.59201Z" fill="white"/>
<path d="M171.458 0.59201H209.978V11.68H183.698V21.256H205.802V31.912H183.698V52H171.458V0.59201ZM173.114 50.416H182.042V30.328H204.146V22.84H182.042V10.096H208.322V2.17601H173.114V50.416Z" fill="white"/>
<path d="M214.138 0.59201H226.378V30.976C226.378 32.752 226.498 34.384 226.738 35.872C226.978 37.312 227.434 38.56 228.106 39.616C228.826 40.672 229.834 41.488 231.13 42.064C232.426 42.64 234.13 42.928 236.242 42.928C238.354 42.928 240.058 42.64 241.354 42.064C242.65 41.488 243.634 40.672 244.306 39.616C245.026 38.56 245.506 37.312 245.746 35.872C245.986 34.384 246.106 32.752 246.106 30.976V0.59201H258.346V30.832C258.346 38.464 256.57 44.104 253.018 47.752C249.514 51.352 243.922 53.152 236.242 53.152C228.562 53.152 222.946 51.352 219.394 47.752C215.89 44.104 214.138 38.464 214.138 30.832V0.59201ZM215.794 30.832C215.794 34.432 216.178 37.552 216.946 40.192C217.714 42.784 218.914 44.92 220.546 46.6C222.226 48.28 224.362 49.528 226.954 50.344C229.546 51.16 232.642 51.568 236.242 51.568C239.842 51.568 242.938 51.16 245.53 50.344C248.122 49.528 250.234 48.28 251.866 46.6C253.546 44.92 254.77 42.784 255.538 40.192C256.306 37.552 256.69 34.432 256.69 30.832V2.17601H247.762V30.976C247.762 33.136 247.57 35.056 247.186 36.736C246.85 38.416 246.25 39.832 245.386 40.984C244.522 42.136 243.346 43.024 241.858 43.648C240.37 44.224 238.498 44.512 236.242 44.512C233.986 44.512 232.114 44.224 230.626 43.648C229.138 43.024 227.962 42.136 227.098 40.984C226.234 39.832 225.61 38.416 225.226 36.736C224.89 35.056 224.722 33.136 224.722 30.976V2.17601H215.794V30.832Z" fill="white"/>
<path d="M280.466 50.416H289.394V10.096H304.874V2.17601H264.986V10.096H280.466V50.416ZM278.81 11.68H263.33V0.59201H306.53V11.68H291.05V52H278.81V11.68Z" fill="white"/>
<path d="M311.52 0.59201H323.76V30.976C323.76 32.752 323.88 34.384 324.12 35.872C324.36 37.312 324.816 38.56 325.488 39.616C326.208 40.672 327.216 41.488 328.512 42.064C329.808 42.64 331.512 42.928 333.624 42.928C335.736 42.928 337.44 42.64 338.736 42.064C340.032 41.488 341.016 40.672 341.688 39.616C342.408 38.56 342.888 37.312 343.128 35.872C343.368 34.384 343.488 32.752 343.488 30.976V0.59201H355.728V30.832C355.728 38.464 353.952 44.104 350.4 47.752C346.896 51.352 341.304 53.152 333.624 53.152C325.944 53.152 320.328 51.352 316.776 47.752C313.272 44.104 311.52 38.464 311.52 30.832V0.59201ZM313.176 30.832C313.176 34.432 313.56 37.552 314.328 40.192C315.096 42.784 316.296 44.92 317.928 46.6C319.608 48.28 321.744 49.528 324.336 50.344C326.928 51.16 330.024 51.568 333.624 51.568C337.224 51.568 340.32 51.16 342.912 50.344C345.504 49.528 347.616 48.28 349.248 46.6C350.928 44.92 352.152 42.784 352.92 40.192C353.688 37.552 354.072 34.432 354.072 30.832V2.17601H345.144V30.976C345.144 33.136 344.952 35.056 344.568 36.736C344.232 38.416 343.632 39.832 342.768 40.984C341.904 42.136 340.728 43.024 339.24 43.648C337.752 44.224 335.88 44.512 333.624 44.512C331.368 44.512 329.496 44.224 328.008 43.648C326.52 43.024 325.344 42.136 324.48 40.984C323.616 39.832 322.992 38.416 322.608 36.736C322.272 35.056 322.104 33.136 322.104 30.976V2.17601H313.176V30.832Z" fill="white"/>
<path d="M375.761 9.23201H387.641C388.409 9.23201 389.369 9.28001 390.521 9.37601C391.721 9.42401 392.849 9.71201 393.905 10.24C395.009 10.72 395.945 11.488 396.713 12.544C397.481 13.6 397.865 15.088 397.865 17.008C397.865 18.976 397.481 20.512 396.713 21.616C395.945 22.672 395.009 23.464 393.905 23.992C392.849 24.472 391.721 24.76 390.521 24.856C389.369 24.904 388.409 24.928 387.641 24.928H375.761V9.23201ZM377.417 23.344H387.641C388.457 23.344 389.369 23.32 390.377 23.272C391.385 23.176 392.321 22.936 393.185 22.552C394.049 22.168 394.769 21.544 395.345 20.68C395.921 19.816 396.209 18.592 396.209 17.008C396.209 15.472 395.921 14.296 395.345 13.48C394.769 12.616 394.049 11.992 393.185 11.608C392.321 11.224 391.385 11.008 390.377 10.96C389.369 10.864 388.457 10.816 387.641 10.816H377.417V23.344ZM366.833 50.416H375.761V31.12H385.553C387.185 31.12 388.697 31.168 390.089 31.264C391.481 31.36 392.705 31.72 393.761 32.344C394.817 32.968 395.657 33.952 396.281 35.296C396.953 36.64 397.361 38.536 397.505 40.984L397.721 44.584C397.817 46.312 397.961 47.584 398.153 48.4C398.345 49.168 398.537 49.84 398.729 50.416H407.873C407.633 50.128 407.393 49.576 407.153 48.76C406.961 47.944 406.769 46.504 406.577 44.44L406.217 39.904C406.025 37.984 405.761 36.4 405.425 35.152C405.137 33.904 404.729 32.872 404.201 32.056C403.673 31.192 402.977 30.472 402.113 29.896C401.297 29.272 400.289 28.6 399.089 27.88V27.736C399.281 27.592 399.785 27.28 400.601 26.8C401.465 26.272 402.353 25.552 403.265 24.64C404.177 23.68 404.993 22.48 405.713 21.04C406.433 19.6 406.793 17.848 406.793 15.784C406.793 13.528 406.457 11.632 405.785 10.096C405.161 8.51201 404.321 7.21601 403.265 6.20801C402.209 5.20001 401.033 4.43201 399.737 3.90401C398.441 3.32801 397.145 2.92001 395.849 2.68001C394.601 2.44001 393.401 2.29601 392.249 2.24801C391.097 2.20001 390.161 2.17601 389.441 2.17601H366.833V50.416ZM365.177 0.59201H390.449C392.753 0.59201 394.985 0.83201 397.145 1.31201C399.305 1.79201 401.225 2.60801 402.905 3.76001C404.585 4.86401 405.929 6.35201 406.937 8.22401C407.945 10.096 408.449 12.424 408.449 15.208C408.449 17.032 408.209 18.64 407.729 20.032C407.297 21.424 406.745 22.624 406.073 23.632C405.401 24.592 404.657 25.408 403.841 26.08C403.073 26.752 402.353 27.28 401.681 27.664C403.985 28.912 405.545 30.616 406.361 32.776C407.225 34.888 407.729 37.192 407.873 39.688L408.233 44.512C408.329 45.808 408.473 46.888 408.665 47.752C408.857 48.568 409.073 49.264 409.313 49.84C409.601 50.368 409.889 50.8 410.177 51.136C410.465 51.472 410.729 51.76 410.969 52H397.649C397.265 51.712 396.953 50.872 396.713 49.48C396.473 48.04 396.257 45.928 396.065 43.144C395.921 40.84 395.657 39.016 395.273 37.672C394.889 36.28 394.313 35.224 393.545 34.504C392.777 33.736 391.769 33.256 390.521 33.064C389.321 32.824 387.809 32.704 385.985 32.704H377.417V52H365.177V0.59201Z" fill="white"/>
<path d="M418.434 50.416H456.306V42.496H427.362V28.96H452.562V21.904H427.362V9.66401H455.586V2.17601H418.434V50.416ZM416.778 0.59201H457.242V11.248H429.018V20.32H454.218V30.544H429.018V40.912H457.962V52H416.778V0.59201Z" fill="white"/>
<path d="M28.008 110.512C26.088 110.512 24.24 110.152 22.464 109.432C20.688 108.664 19.104 107.536 17.712 106.048C16.368 104.512 15.288 102.616 14.472 100.36C13.656 98.056 13.248 95.368 13.248 92.296C13.248 89.224 13.656 86.56 14.472 84.304C15.288 82 16.368 80.104 17.712 78.616C19.104 77.08 20.688 75.952 22.464 75.232C24.24 74.464 26.088 74.08 28.008 74.08C29.928 74.08 31.776 74.464 33.552 75.232C35.328 75.952 36.888 77.08 38.232 78.616C39.624 80.104 40.728 82 41.544 84.304C42.36 86.56 42.768 89.224 42.768 92.296C42.768 95.368 42.36 98.056 41.544 100.36C40.728 102.616 39.624 104.512 38.232 106.048C36.888 107.536 35.328 108.664 33.552 109.432C31.776 110.152 29.928 110.512 28.008 110.512ZM28.008 108.928C29.496 108.928 31.008 108.64 32.544 108.064C34.128 107.488 35.544 106.552 36.792 105.256C38.088 103.912 39.12 102.184 39.888 100.072C40.704 97.96 41.112 95.368 41.112 92.296C41.112 89.224 40.704 86.632 39.888 84.52C39.12 82.408 38.088 80.704 36.792 79.408C35.544 78.064 34.128 77.104 32.544 76.528C31.008 75.952 29.496 75.664 28.008 75.664C26.472 75.664 24.936 75.952 23.4 76.528C21.864 77.104 20.448 78.064 19.152 79.408C17.904 80.704 16.872 82.408 16.056 84.52C15.288 86.632 14.904 89.224 14.904 92.296C14.904 95.368 15.288 97.96 16.056 100.072C16.872 102.184 17.904 103.912 19.152 105.256C20.448 106.552 21.864 107.488 23.4 108.064C24.936 108.64 26.472 108.928 28.008 108.928ZM28.008 117.568C31.224 117.568 34.272 117.016 37.152 115.912C40.032 114.76 42.552 113.104 44.712 110.944C46.872 108.784 48.576 106.144 49.824 103.024C51.072 99.904 51.696 96.328 51.696 92.296C51.696 88.264 51.072 84.688 49.824 81.568C48.576 78.448 46.872 75.808 44.712 73.648C42.552 71.488 40.032 69.856 37.152 68.752C34.272 67.6 31.224 67.024 28.008 67.024C24.744 67.024 21.672 67.6 18.792 68.752C15.96 69.856 13.464 71.488 11.304 73.648C9.14401 75.808 7.44001 78.448 6.19201 81.568C4.94401 84.688 4.32001 88.264 4.32001 92.296C4.32001 96.328 4.94401 99.904 6.19201 103.024C7.44001 106.144 9.14401 108.784 11.304 110.944C13.464 113.104 15.96 114.76 18.792 115.912C21.672 117.016 24.744 117.568 28.008 117.568ZM28.008 65.44C31.656 65.44 35.016 66.088 38.088 67.384C41.208 68.632 43.896 70.432 46.152 72.784C48.408 75.088 50.16 77.896 51.408 81.208C52.704 84.52 53.352 88.216 53.352 92.296C53.352 96.376 52.704 100.072 51.408 103.384C50.16 106.696 48.408 109.528 46.152 111.88C43.896 114.184 41.208 115.984 38.088 117.28C35.016 118.528 31.656 119.152 28.008 119.152C24.36 119.152 20.976 118.528 17.856 117.28C14.784 115.984 12.12 114.184 9.86401 111.88C7.60801 109.528 5.83201 106.696 4.53601 103.384C3.28801 100.072 2.66401 96.376 2.66401 92.296C2.66401 88.216 3.28801 84.52 4.53601 81.208C5.83201 77.896 7.60801 75.088 9.86401 72.784C12.12 70.432 14.784 68.632 17.856 67.384C20.976 66.088 24.36 65.44 28.008 65.44Z" fill="white"/>
<path d="M60.5751 66.592H99.0951V77.68H72.8151V87.256H94.9191V97.912H72.8151V118H60.5751V66.592ZM62.2311 116.416H71.1591V96.328H93.2631V88.84H71.1591V76.096H97.4391V68.176H62.2311V116.416Z" fill="white"/>
<path d="M126.396 66.592H147.564C151.164 66.592 154.476 67.12 157.5 68.176C160.524 69.184 163.116 70.744 165.276 72.856C167.436 74.968 169.116 77.656 170.316 80.92C171.564 84.136 172.188 87.928 172.188 92.296C172.188 96.712 171.564 100.528 170.316 103.744C169.116 106.96 167.436 109.624 165.276 111.736C163.116 113.848 160.524 115.432 157.5 116.488C154.476 117.496 151.164 118 147.564 118H126.396V66.592ZM128.052 116.416H147.564C151.116 116.416 154.308 115.888 157.14 114.832C159.972 113.776 162.372 112.216 164.34 110.152C166.356 108.088 167.892 105.568 168.948 102.592C170.004 99.616 170.532 96.184 170.532 92.296C170.532 88.408 170.004 84.976 168.948 82C167.892 79.024 166.356 76.504 164.34 74.44C162.372 72.376 159.972 70.816 157.14 69.76C154.308 68.704 151.116 68.176 147.564 68.176H128.052V116.416ZM136.98 75.664H146.556C151.788 75.664 155.604 77.128 158.004 80.056C160.404 82.936 161.604 87.016 161.604 92.296C161.604 97.576 160.404 101.68 158.004 104.608C155.604 107.488 151.788 108.928 146.556 108.928H136.98V75.664ZM138.636 107.344H146.556C146.988 107.344 147.612 107.32 148.428 107.272C149.292 107.224 150.204 107.056 151.164 106.768C152.172 106.48 153.18 106.048 154.188 105.472C155.244 104.848 156.18 103.984 156.996 102.88C157.86 101.776 158.556 100.36 159.084 98.632C159.66 96.904 159.948 94.792 159.948 92.296C159.948 89.8 159.66 87.688 159.084 85.96C158.556 84.232 157.86 82.816 156.996 81.712C156.18 80.608 155.244 79.768 154.188 79.192C153.18 78.568 152.172 78.112 151.164 77.824C150.204 77.536 149.292 77.368 148.428 77.32C147.612 77.272 146.988 77.248 146.556 77.248H138.636V107.344Z" fill="white"/>
<path d="M181.059 116.416H218.931V108.496H189.987V94.96H215.187V87.904H189.987V75.664H218.211V68.176H181.059V116.416ZM179.403 66.592H219.867V77.248H191.643V86.32H216.843V96.544H191.643V106.912H220.587V118H179.403V66.592Z" fill="white"/>
<path d="M224.723 101.512C224.867 103.816 225.371 105.952 226.235 107.92C227.147 109.84 228.443 111.52 230.123 112.96C231.851 114.4 233.963 115.528 236.459 116.344C238.955 117.16 241.883 117.568 245.243 117.568C251.483 117.568 256.331 116.224 259.787 113.536C263.291 110.8 265.043 106.96 265.043 102.016C265.043 99.568 264.539 97.576 263.531 96.04C262.523 94.504 261.299 93.256 259.859 92.296C258.467 91.336 257.003 90.616 255.467 90.136C253.979 89.656 252.707 89.272 251.651 88.984L243.371 86.752C241.787 86.32 240.467 85.912 239.411 85.528C238.355 85.096 237.515 84.64 236.891 84.16C236.267 83.68 235.835 83.152 235.595 82.576C235.355 81.952 235.235 81.208 235.235 80.344C235.235 79.048 235.523 77.992 236.099 77.176C236.675 76.312 237.419 75.616 238.331 75.088C239.243 74.56 240.203 74.2 241.211 74.008C242.267 73.768 243.275 73.648 244.235 73.648C246.395 73.648 248.123 73.96 249.419 74.584C250.715 75.16 251.699 75.856 252.371 76.672C253.091 77.488 253.571 78.328 253.811 79.192C254.099 80.056 254.291 80.752 254.387 81.28H263.243C263.003 78.928 262.403 76.864 261.443 75.088C260.483 73.312 259.211 71.824 257.627 70.624C256.043 69.424 254.195 68.536 252.083 67.96C249.971 67.336 247.667 67.024 245.171 67.024C241.763 67.024 238.859 67.456 236.459 68.32C234.107 69.184 232.187 70.312 230.699 71.704C229.259 73.048 228.203 74.584 227.531 76.312C226.907 78.04 226.595 79.768 226.595 81.496C226.595 83.464 226.907 85.12 227.531 86.464C228.203 87.808 229.043 88.936 230.051 89.848C231.107 90.712 232.259 91.432 233.507 92.008C234.755 92.536 236.003 92.968 237.251 93.304L248.987 96.688C250.715 97.216 252.059 97.744 253.019 98.272C253.979 98.8 254.675 99.352 255.107 99.928C255.587 100.456 255.875 101.008 255.971 101.584C256.067 102.112 256.115 102.64 256.115 103.168C256.115 104.56 255.827 105.736 255.251 106.696C254.723 107.656 253.979 108.472 253.019 109.144C252.059 109.768 250.955 110.224 249.707 110.512C248.459 110.8 247.115 110.944 245.675 110.944C243.083 110.944 241.019 110.56 239.483 109.792C237.947 109.024 236.771 108.136 235.955 107.128C235.139 106.072 234.587 105.016 234.299 103.96C234.011 102.904 233.819 102.088 233.723 101.512H224.723ZM235.307 99.928C235.355 100.552 235.451 101.392 235.595 102.448C235.739 103.504 236.147 104.56 236.819 105.616C237.491 106.624 238.523 107.512 239.915 108.28C241.307 109 243.227 109.36 245.675 109.36C248.843 109.36 251.099 108.832 252.443 107.776C253.787 106.72 254.459 105.184 254.459 103.168C254.459 101.728 253.883 100.672 252.731 100C251.627 99.328 250.211 98.728 248.483 98.2L236.819 94.888C236.099 94.696 235.067 94.36 233.723 93.88C232.379 93.352 231.059 92.608 229.763 91.648C228.467 90.64 227.339 89.32 226.379 87.688C225.419 86.056 224.939 83.992 224.939 81.496C224.939 79.144 225.395 76.984 226.307 75.016C227.267 73.048 228.611 71.368 230.339 69.976C232.115 68.536 234.251 67.432 236.747 66.664C239.243 65.848 242.051 65.44 245.171 65.44C248.099 65.44 250.739 65.8 253.091 66.52C255.443 67.24 257.459 68.32 259.139 69.76C260.867 71.2 262.211 73.024 263.171 75.232C264.179 77.392 264.755 79.936 264.899 82.864H252.947C252.851 82.24 252.707 81.496 252.515 80.632C252.371 79.768 252.011 78.952 251.435 78.184C250.859 77.368 249.995 76.672 248.843 76.096C247.739 75.52 246.203 75.232 244.235 75.232C243.419 75.232 242.579 75.328 241.715 75.52C240.851 75.664 240.059 75.928 239.339 76.312C238.619 76.696 238.019 77.224 237.539 77.896C237.107 78.52 236.891 79.336 236.891 80.344C236.891 81.496 237.203 82.384 237.827 83.008C238.499 83.584 239.531 84.064 240.923 84.448L254.891 88.264C256.475 88.696 257.963 89.272 259.355 89.992C260.795 90.712 262.043 91.624 263.099 92.728C264.203 93.832 265.067 95.152 265.691 96.688C266.363 98.224 266.699 100 266.699 102.016C266.699 104.32 266.315 106.504 265.547 108.568C264.779 110.632 263.531 112.456 261.803 114.04C260.123 115.576 257.915 116.824 255.179 117.784C252.491 118.696 249.179 119.152 245.243 119.152C241.979 119.152 239.003 118.792 236.315 118.072C233.675 117.352 231.395 116.224 229.475 114.688C227.603 113.104 226.091 111.112 224.939 108.712C223.835 106.264 223.211 103.336 223.067 99.928H235.307Z" fill="white"/>
<path d="M274.434 116.416H283.362V68.176H274.434V116.416ZM272.778 66.592H285.018V118H272.778V66.592Z" fill="white"/>
<path d="M333.467 116.416H338.723V91.288H319.643V97.696H330.875C330.875 101.776 329.675 104.944 327.275 107.2C324.923 109.408 321.683 110.512 317.555 110.512C315.635 110.512 313.787 110.152 312.011 109.432C310.235 108.664 308.651 107.536 307.259 106.048C305.915 104.512 304.835 102.616 304.019 100.36C303.203 98.056 302.795 95.368 302.795 92.296C302.795 89.224 303.203 86.56 304.019 84.304C304.835 82 305.915 80.104 307.259 78.616C308.651 77.08 310.235 75.952 312.011 75.232C313.787 74.464 315.635 74.08 317.555 74.08C318.899 74.08 320.195 74.272 321.443 74.656C322.739 75.04 323.915 75.616 324.971 76.384C326.027 77.104 326.915 78.016 327.635 79.12C328.403 80.224 328.931 81.472 329.219 82.864H338.219C338.219 81.568 337.787 80.032 336.923 78.256C336.059 76.432 334.763 74.704 333.035 73.072C331.355 71.392 329.219 69.976 326.627 68.824C324.035 67.624 321.011 67.024 317.555 67.024C314.291 67.024 311.219 67.6 308.339 68.752C305.507 69.856 303.011 71.488 300.851 73.648C298.691 75.808 296.987 78.448 295.739 81.568C294.491 84.688 293.867 88.264 293.867 92.296C293.867 96.328 294.491 99.904 295.739 103.024C296.987 106.144 298.643 108.784 300.707 110.944C302.819 113.104 305.219 114.76 307.907 115.912C310.643 117.016 313.499 117.568 316.475 117.568C318.203 117.568 319.763 117.424 321.155 117.136C322.547 116.848 323.843 116.416 325.043 115.84C326.291 115.216 327.443 114.448 328.499 113.536C329.603 112.624 330.731 111.52 331.883 110.224L333.467 116.416ZM317.987 89.704H340.379V118H332.243L331.019 113.248C328.859 115.408 326.627 116.944 324.323 117.856C322.067 118.72 319.451 119.152 316.475 119.152C313.115 119.152 309.947 118.528 306.971 117.28C304.043 115.984 301.475 114.184 299.267 111.88C297.107 109.528 295.379 106.696 294.083 103.384C292.835 100.072 292.211 96.376 292.211 92.296C292.211 88.216 292.835 84.52 294.083 81.208C295.379 77.896 297.155 75.088 299.411 72.784C301.667 70.432 304.331 68.632 307.403 67.384C310.523 66.088 313.907 65.44 317.555 65.44C320.435 65.44 323.195 65.92 325.835 66.88C328.523 67.792 330.899 69.088 332.963 70.768C335.075 72.448 336.755 74.464 338.003 76.816C339.251 79.12 339.875 81.664 339.875 84.448H327.923C327.395 81.616 326.243 79.456 324.467 77.968C322.691 76.432 320.387 75.664 317.555 75.664C316.019 75.664 314.483 75.952 312.947 76.528C311.411 77.104 309.995 78.064 308.699 79.408C307.451 80.704 306.419 82.408 305.603 84.52C304.835 86.632 304.451 89.224 304.451 92.296C304.451 95.368 304.835 97.96 305.603 100.072C306.419 102.184 307.451 103.912 308.699 105.256C309.995 106.552 311.411 107.488 312.947 108.064C314.483 108.64 316.019 108.928 317.555 108.928C319.043 108.928 320.483 108.736 321.875 108.352C323.315 107.92 324.563 107.296 325.619 106.48C326.723 105.664 327.587 104.656 328.211 103.456C328.883 102.256 329.219 100.864 329.219 99.28H317.987V89.704Z" fill="white"/>
<path d="M348.86 66.592H360.812L380.756 97.336H380.9V66.592H392.852V118H380.612L360.956 86.896H360.812V118H348.86V66.592ZM350.516 116.416H359.156V81.28L381.548 116.416H391.196V68.176H382.556V102.952L360.02 68.176H350.516V116.416Z" fill="white"/>
<path d="M449.56 105.76C449.224 106.144 448.792 106.624 448.264 107.2C447.736 107.776 447.088 108.328 446.32 108.856C445.552 109.384 444.664 109.84 443.656 110.224C442.648 110.608 441.496 110.8 440.2 110.8C437.896 110.8 435.976 110.08 434.44 108.64C432.904 107.2 432.136 105.328 432.136 103.024C432.136 101.872 432.376 100.864 432.856 100C433.336 99.136 433.96 98.344 434.728 97.624C435.496 96.904 436.336 96.28 437.248 95.752C438.208 95.176 439.144 94.624 440.056 94.096L449.56 105.76ZM439.552 96.184C438.832 96.616 438.112 97.048 437.392 97.48C436.72 97.912 436.12 98.392 435.592 98.92C435.064 99.448 434.632 100.048 434.296 100.72C433.96 101.392 433.792 102.16 433.792 103.024C433.792 104.848 434.368 106.336 435.52 107.488C436.672 108.64 438.232 109.216 440.2 109.216C441.736 109.216 443.08 108.88 444.232 108.208C445.432 107.536 446.488 106.72 447.4 105.76L439.552 96.184ZM442.648 86.392C442.168 85.816 441.64 85.216 441.064 84.592C440.536 83.968 440.032 83.32 439.552 82.648C439.072 81.928 438.664 81.184 438.328 80.416C437.992 79.648 437.824 78.856 437.824 78.04C437.824 76.36 438.352 75.04 439.408 74.08C440.512 73.12 441.832 72.64 443.368 72.64C444.376 72.64 445.24 72.832 445.96 73.216C446.68 73.552 447.256 74.008 447.688 74.584C448.12 75.112 448.432 75.736 448.624 76.456C448.864 77.128 448.984 77.8 448.984 78.472C448.984 79.576 448.744 80.56 448.264 81.424C447.784 82.24 447.184 82.984 446.464 83.656C445.792 84.28 445.096 84.832 444.376 85.312C443.656 85.744 443.08 86.104 442.648 86.392ZM443.008 84.448C444.064 83.728 445.048 82.936 445.96 82.072C446.872 81.16 447.328 79.96 447.328 78.472C447.328 77.224 446.992 76.216 446.32 75.448C445.648 74.632 444.664 74.224 443.368 74.224C442.312 74.224 441.4 74.56 440.632 75.232C439.864 75.904 439.48 76.816 439.48 77.968C439.48 79.024 439.84 80.104 440.56 81.208C441.328 82.264 442.144 83.344 443.008 84.448ZM458.632 105.76C461.08 102.208 462.688 98.32 463.456 94.096H456.832C456.784 94.384 456.664 94.84 456.472 95.464C456.28 96.088 456.064 96.76 455.824 97.48C455.584 98.152 455.32 98.8 455.032 99.424C454.744 100 454.504 100.384 454.312 100.576L446.392 90.928C447.688 90.208 448.888 89.464 449.992 88.696C451.096 87.88 452.056 86.992 452.872 86.032C453.688 85.072 454.312 83.992 454.744 82.792C455.224 81.544 455.464 80.128 455.464 78.544C455.464 76.816 455.152 75.28 454.528 73.936C453.904 72.592 453.04 71.464 451.936 70.552C450.88 69.592 449.632 68.872 448.192 68.392C446.8 67.864 445.288 67.6 443.656 67.6C441.016 67.6 438.856 68.032 437.176 68.896C435.544 69.712 434.248 70.696 433.288 71.848C432.376 73 431.752 74.2 431.416 75.448C431.08 76.696 430.912 77.728 430.912 78.544C430.912 79.504 431.056 80.464 431.344 81.424C431.68 82.384 432.088 83.32 432.568 84.232C433.096 85.096 433.648 85.96 434.224 86.824C434.848 87.64 435.448 88.384 436.024 89.056C435.016 89.536 433.84 90.16 432.496 90.928C431.152 91.696 429.856 92.632 428.608 93.736C427.408 94.84 426.376 96.184 425.512 97.768C424.696 99.304 424.288 101.104 424.288 103.168C424.288 104.992 424.576 106.768 425.152 108.496C425.776 110.224 426.688 111.76 427.888 113.104C429.136 114.4 430.72 115.456 432.64 116.272C434.56 117.04 436.864 117.424 439.552 117.424C442.288 117.424 444.88 116.872 447.328 115.768C449.776 114.616 451.912 113.032 453.736 111.016L458.272 116.416H468.064L458.632 105.76ZM471.52 118H457.48L453.592 113.392C451.816 115.168 449.656 116.56 447.112 117.568C444.568 118.528 442.048 119.008 439.552 119.008C436.96 119.008 434.608 118.624 432.496 117.856C430.432 117.04 428.656 115.936 427.168 114.544C425.728 113.152 424.6 111.496 423.784 109.576C423.016 107.608 422.632 105.472 422.632 103.168C422.632 101.104 423.016 99.304 423.784 97.768C424.552 96.184 425.488 94.816 426.592 93.664C427.744 92.464 428.944 91.456 430.192 90.64C431.488 89.776 432.64 89.056 433.648 88.48C433.36 88.144 432.952 87.664 432.424 87.04C431.944 86.368 431.464 85.576 430.984 84.664C430.552 83.752 430.144 82.768 429.76 81.712C429.424 80.656 429.256 79.576 429.256 78.472C429.256 77.368 429.448 76.096 429.832 74.656C430.264 73.216 431.008 71.872 432.064 70.624C433.168 69.328 434.656 68.248 436.528 67.384C438.4 66.472 440.776 66.016 443.656 66.016C445.768 66.016 447.664 66.376 449.344 67.096C451.024 67.768 452.44 68.704 453.592 69.904C454.744 71.056 455.608 72.376 456.184 73.864C456.808 75.352 457.12 76.888 457.12 78.472C457.12 81.4 456.304 83.92 454.672 86.032C453.088 88.144 451.12 89.944 448.768 91.432L454.096 97.768C454.24 97.48 454.384 97.12 454.528 96.688C454.672 96.208 454.768 95.728 454.816 95.248C454.912 94.72 454.984 94.216 455.032 93.736C455.128 93.256 455.176 92.848 455.176 92.512H465.472C465.424 93.136 465.28 94 465.04 95.104C464.8 96.16 464.464 97.312 464.032 98.56C463.6 99.808 463.072 101.08 462.448 102.376C461.872 103.624 461.224 104.752 460.504 105.76L471.52 118Z" fill="white"/>
<path d="M497.294 66.592H518.462C522.062 66.592 525.374 67.12 528.398 68.176C531.422 69.184 534.014 70.744 536.174 72.856C538.334 74.968 540.014 77.656 541.214 80.92C542.462 84.136 543.086 87.928 543.086 92.296C543.086 96.712 542.462 100.528 541.214 103.744C540.014 106.96 538.334 109.624 536.174 111.736C534.014 113.848 531.422 115.432 528.398 116.488C525.374 117.496 522.062 118 518.462 118H497.294V66.592ZM498.95 116.416H518.462C522.014 116.416 525.206 115.888 528.038 114.832C530.87 113.776 533.27 112.216 535.238 110.152C537.254 108.088 538.79 105.568 539.846 102.592C540.902 99.616 541.43 96.184 541.43 92.296C541.43 88.408 540.902 84.976 539.846 82C538.79 79.024 537.254 76.504 535.238 74.44C533.27 72.376 530.87 70.816 528.038 69.76C525.206 68.704 522.014 68.176 518.462 68.176H498.95V116.416ZM507.878 75.664H517.454C522.686 75.664 526.502 77.128 528.902 80.056C531.302 82.936 532.502 87.016 532.502 92.296C532.502 97.576 531.302 101.68 528.902 104.608C526.502 107.488 522.686 108.928 517.454 108.928H507.878V75.664ZM509.534 107.344H517.454C517.886 107.344 518.51 107.32 519.326 107.272C520.19 107.224 521.102 107.056 522.062 106.768C523.07 106.48 524.078 106.048 525.086 105.472C526.142 104.848 527.078 103.984 527.894 102.88C528.758 101.776 529.454 100.36 529.982 98.632C530.558 96.904 530.846 94.792 530.846 92.296C530.846 89.8 530.558 87.688 529.982 85.96C529.454 84.232 528.758 82.816 527.894 81.712C527.078 80.608 526.142 79.768 525.086 79.192C524.078 78.568 523.07 78.112 522.062 77.824C521.102 77.536 520.19 77.368 519.326 77.32C518.51 77.272 517.886 77.248 517.454 77.248H509.534V107.344Z" fill="white"/>
<path d="M551.958 116.416H589.83V108.496H560.886V94.96H586.086V87.904H560.886V75.664H589.11V68.176H551.958V116.416ZM550.302 66.592H590.766V77.248H562.542V86.32H587.742V96.544H562.542V106.912H591.486V118H550.302V66.592Z" fill="white"/>
<path d="M591.445 66.592H604.117L615.061 100.864H615.205L626.149 66.592H638.821L621.469 118H608.077L591.445 66.592ZM609.229 116.416H620.389L636.661 68.176H627.157L615.133 105.904L603.109 68.176H593.605L609.229 116.416Z" fill="white"/>
<path d="M643.997 116.416H681.869V108.496H652.925V94.96H678.125V87.904H652.925V75.664H681.149V68.176H643.997V116.416ZM642.341 66.592H682.805V77.248H654.581V86.32H679.781V96.544H654.581V106.912H683.525V118H642.341V66.592Z" fill="white"/>
<path d="M689.028 66.592H701.268V106.912H725.748V118H689.028V66.592ZM690.684 116.416H724.092V108.496H699.612V68.176H690.684V116.416Z" fill="white"/>
<path d="M755.18 110.512C753.26 110.512 751.412 110.152 749.636 109.432C747.86 108.664 746.276 107.536 744.884 106.048C743.54 104.512 742.46 102.616 741.644 100.36C740.828 98.056 740.42 95.368 740.42 92.296C740.42 89.224 740.828 86.56 741.644 84.304C742.46 82 743.54 80.104 744.884 78.616C746.276 77.08 747.86 75.952 749.636 75.232C751.412 74.464 753.26 74.08 755.18 74.08C757.1 74.08 758.948 74.464 760.724 75.232C762.5 75.952 764.06 77.08 765.404 78.616C766.796 80.104 767.9 82 768.716 84.304C769.532 86.56 769.94 89.224 769.94 92.296C769.94 95.368 769.532 98.056 768.716 100.36C767.9 102.616 766.796 104.512 765.404 106.048C764.06 107.536 762.5 108.664 760.724 109.432C758.948 110.152 757.1 110.512 755.18 110.512ZM755.18 108.928C756.668 108.928 758.18 108.64 759.716 108.064C761.3 107.488 762.716 106.552 763.964 105.256C765.26 103.912 766.292 102.184 767.06 100.072C767.876 97.96 768.284 95.368 768.284 92.296C768.284 89.224 767.876 86.632 767.06 84.52C766.292 82.408 765.26 80.704 763.964 79.408C762.716 78.064 761.3 77.104 759.716 76.528C758.18 75.952 756.668 75.664 755.18 75.664C753.644 75.664 752.108 75.952 750.572 76.528C749.036 77.104 747.62 78.064 746.324 79.408C745.076 80.704 744.044 82.408 743.228 84.52C742.46 86.632 742.076 89.224 742.076 92.296C742.076 95.368 742.46 97.96 743.228 100.072C744.044 102.184 745.076 103.912 746.324 105.256C747.62 106.552 749.036 107.488 750.572 108.064C752.108 108.64 753.644 108.928 755.18 108.928ZM755.18 117.568C758.396 117.568 761.444 117.016 764.324 115.912C767.204 114.76 769.724 113.104 771.884 110.944C774.044 108.784 775.748 106.144 776.996 103.024C778.244 99.904 778.868 96.328 778.868 92.296C778.868 88.264 778.244 84.688 776.996 81.568C775.748 78.448 774.044 75.808 771.884 73.648C769.724 71.488 767.204 69.856 764.324 68.752C761.444 67.6 758.396 67.024 755.18 67.024C751.916 67.024 748.844 67.6 745.964 68.752C743.132 69.856 740.636 71.488 738.476 73.648C736.316 75.808 734.612 78.448 733.364 81.568C732.116 84.688 731.492 88.264 731.492 92.296C731.492 96.328 732.116 99.904 733.364 103.024C734.612 106.144 736.316 108.784 738.476 110.944C740.636 113.104 743.132 114.76 745.964 115.912C748.844 117.016 751.916 117.568 755.18 117.568ZM755.18 65.44C758.828 65.44 762.188 66.088 765.26 67.384C768.38 68.632 771.068 70.432 773.324 72.784C775.58 75.088 777.332 77.896 778.58 81.208C779.876 84.52 780.524 88.216 780.524 92.296C780.524 96.376 779.876 100.072 778.58 103.384C777.332 106.696 775.58 109.528 773.324 111.88C771.068 114.184 768.38 115.984 765.26 117.28C762.188 118.528 758.828 119.152 755.18 119.152C751.532 119.152 748.148 118.528 745.028 117.28C741.956 115.984 739.292 114.184 737.036 111.88C734.78 109.528 733.004 106.696 731.708 103.384C730.46 100.072 729.836 96.376 729.836 92.296C729.836 88.216 730.46 84.52 731.708 81.208C733.004 77.896 734.78 75.088 737.036 72.784C739.292 70.432 741.956 68.632 745.028 67.384C748.148 66.088 751.532 65.44 755.18 65.44Z" fill="white"/>
<path d="M798.331 75.664H809.923C810.595 75.664 811.459 75.736 812.515 75.88C813.571 75.976 814.603 76.288 815.611 76.816C816.619 77.344 817.483 78.136 818.203 79.192C818.923 80.248 819.283 81.712 819.283 83.584C819.283 85.456 818.923 86.92 818.203 87.976C817.483 89.032 816.619 89.824 815.611 90.352C814.603 90.88 813.571 91.216 812.515 91.36C811.459 91.456 810.595 91.504 809.923 91.504H798.331V75.664ZM799.987 89.92H809.923C810.499 89.92 811.219 89.896 812.083 89.848C812.995 89.752 813.859 89.512 814.675 89.128C815.491 88.696 816.187 88.048 816.763 87.184C817.339 86.32 817.627 85.12 817.627 83.584C817.627 82.048 817.339 80.848 816.763 79.984C816.187 79.12 815.491 78.496 814.675 78.112C813.859 77.68 812.995 77.44 812.083 77.392C811.219 77.296 810.499 77.248 809.923 77.248H799.987V89.92ZM789.403 116.416H798.331V98.56H811.219C813.667 98.56 815.899 98.296 817.915 97.768C819.979 97.192 821.731 96.304 823.171 95.104C824.659 93.904 825.811 92.344 826.627 90.424C827.491 88.456 827.923 86.104 827.923 83.368C827.923 80.632 827.491 78.304 826.627 76.384C825.811 74.416 824.659 72.832 823.171 71.632C821.731 70.432 819.979 69.568 817.915 69.04C815.899 68.464 813.667 68.176 811.219 68.176H789.403V116.416ZM787.747 66.592H811.219C813.955 66.592 816.451 66.928 818.707 67.6C820.963 68.272 822.883 69.304 824.467 70.696C826.099 72.04 827.347 73.768 828.211 75.88C829.123 77.992 829.579 80.488 829.579 83.368C829.579 86.248 829.123 88.744 828.211 90.856C827.347 92.968 826.099 94.72 824.467 96.112C822.883 97.456 820.963 98.464 818.707 99.136C816.451 99.808 813.955 100.144 811.219 100.144H799.987V118H787.747V66.592Z" fill="white"/>
<path d="M836.058 66.592H852.906L864.066 97.768H864.21L875.154 66.592H891.714V118H879.474V87.328H879.33L868.89 118H859.098L848.442 87.328H848.298V118H836.058V66.592ZM837.714 116.416H846.642V77.824H846.858L860.25 116.416H867.738L880.986 77.824H881.13V116.416H890.058V68.176H876.306L864.138 102.736L851.754 68.176H837.714V116.416Z" fill="white"/>
<path d="M902.747 116.416H940.619V108.496H911.675V94.96H936.875V87.904H911.675V75.664H939.899V68.176H902.747V116.416ZM901.091 66.592H941.555V77.248H913.331V86.32H938.531V96.544H913.331V106.912H942.275V118H901.091V66.592Z" fill="white"/>
<path d="M947.922 66.592H959.874L979.818 97.336H979.962V66.592H991.914V118H979.674L960.018 86.896H959.874V118H947.922V66.592ZM949.578 116.416H958.218V81.28L980.61 116.416H990.258V68.176H981.618V102.952L959.082 68.176H949.578V116.416Z" fill="white"/>
<path d="M1014.18 116.416H1023.11V76.096H1038.59V68.176H998.697V76.096H1014.18V116.416ZM1012.52 77.68H997.041V66.592H1040.24V77.68H1024.76V118H1012.52V77.68Z" fill="white"/>
</svg>
