<svg width="61" height="12" viewBox="0 0 61 12" fill="none" xmlns="http://www.w3.org/2000/svg">
<path fill-rule="evenodd" clip-rule="evenodd" d="M32.2954 7.5363C32.3616 8.01412 32.4917 8.3713 32.6857 8.60784C33.0405 9.03835 33.6484 9.25361 34.5094 9.25361C35.0251 9.25361 35.4438 9.19684 35.7655 9.08329C36.3758 8.86567 36.6809 8.46118 36.6809 7.86982C36.6809 7.52447 36.5295 7.25717 36.2267 7.06794C35.924 6.88343 35.4485 6.72022 34.8004 6.57829L33.6933 6.32992C32.6052 6.08391 31.853 5.81662 31.4367 5.52804C30.7318 5.04549 30.3794 4.29091 30.3794 3.26431C30.3794 2.32759 30.72 1.54936 31.4012 0.929618C32.0825 0.309873 33.0831 0 34.403 0C35.5053 0 36.4444 0.293315 37.2202 0.879944C38.0008 1.46184 38.41 2.30867 38.4479 3.42043H36.3474C36.3095 2.79122 36.0351 2.34415 35.5242 2.07922C35.1836 1.90418 34.7602 1.81666 34.254 1.81666C33.691 1.81666 33.2415 1.9302 32.9057 2.15728C32.5698 2.38436 32.4018 2.70133 32.4018 3.10819C32.4018 3.48193 32.5674 3.76105 32.8986 3.94556C33.1114 4.06856 33.5656 4.21285 34.2611 4.37843L36.0635 4.81131C36.8536 5.00054 37.4497 5.25364 37.8518 5.57061C38.4763 6.06263 38.7885 6.77462 38.7885 7.70661C38.7885 8.66225 38.4219 9.45703 37.6886 10.091C36.96 10.7202 35.9287 11.0348 34.5946 11.0348C33.2321 11.0348 32.1605 10.7249 31.3799 10.1052C30.5993 9.48069 30.209 8.6244 30.209 7.5363H32.2954ZM0 10.7651V0.305142H2.16438V4.29328H6.25186V0.305142H8.42334V10.7651H6.25186V6.09574H2.16438V10.7651H0ZM16.6409 0.305142H18.9117L15.3423 10.7651H13.2772L9.74325 0.305142H12.0779L14.3488 8.24593L16.6409 0.305142ZM22.467 0.305142H20.1748V10.7651H22.2115V3.33527L26.4835 10.7651H28.6691V0.305142H26.6325V7.60726L22.467 0.305142ZM54.7978 0.305142H52.5057V10.7651H54.5423V3.33527L58.8143 10.7651H61V0.305142H58.9634V7.60726L54.7978 0.305142ZM49.4606 0.301147H41.6126V2.04514H49.4606V0.301147ZM41.6126 4.66122H49.4606V6.40522H41.6126V4.66122ZM49.4606 9.02109H41.6126V10.7651H49.4606V9.02109Z" fill="white"/>
</svg>
